<?xml version="1.0" encoding="utf-8"?>
<!-- Generator: Adobe Illustrator 21.0.2, SVG Export Plug-In . SVG Version: 6.00 Build 0)  -->
<svg version="1.1" id="Layer_1" xmlns="http://www.w3.org/2000/svg" xmlns:xlink="http://www.w3.org/1999/xlink" x="0px" y="0px"
	 viewBox="0 0 56 56" style="enable-background:new 0 0 56 56;" xml:space="preserve">
<style type="text/css">
	.st0{fill:#606060;}
</style>
<title>my account</title>
<g id="Layer_2">
	<g id="Layer_1-2">
		<path class="st0" d="M48.9,45.6c9.7-11.6,8.3-28.8-3.3-38.6S16.8-1.2,7.1,10.4c-8.6,10.2-8.6,25.1,0,35.3c1,1.2,2.1,2.3,3.2,3.2
			C21.8,58.7,39.1,57.2,48.9,45.6C48.9,45.7,48.9,45.7,48.9,45.6z M43.9,47.1v0.2l-0.2,0.1c-9.2,7.4-22.2,7.4-31.4,0l-0.1-0.1v-0.2
			c-1.9-8.8,3.7-17.4,12.5-19.3c1-0.2,2-0.3,3-0.4h0.5c9,0.1,16.2,7.5,16,16.5C44.2,45,44.1,46.1,43.9,47.1L43.9,47.1z M20.5,17.5
			c0-4.2,3.4-7.5,7.5-7.5s7.5,3.4,7.5,7.5c0,4.2-3.4,7.5-7.5,7.5c0,0,0,0,0,0C23.8,25.1,20.5,21.7,20.5,17.5z M46.6,43.1
			c-0.2-7.6-5.1-14.4-12.2-17l-0.9-0.3l0.8-0.6c4.3-3.4,4.9-9.7,1.5-14s-9.7-4.9-14-1.5s-4.9,9.7-1.5,14c0.4,0.5,0.9,1,1.5,1.5
			l0.8,0.6l-0.9,0.3c-7.2,2.6-12,9.4-12.2,17v1.5l-0.9-1.2c-8.6-10.8-6.7-26.6,4.1-35.1s26.6-6.7,35.1,4.1c7.2,9.1,7.2,21.9,0,31
			l-0.9,1.2L46.6,43.1z"/>
	</g>
</g>
</svg>
