<?xml version="1.0" encoding="utf-8"?>
<!-- Generator: Adobe Illustrator 21.0.2, SVG Export Plug-In . SVG Version: 6.00 Build 0)  -->
<svg version="1.1" id="Layer_1" xmlns="http://www.w3.org/2000/svg" xmlns:xlink="http://www.w3.org/1999/xlink" x="0px" y="0px"
	 viewBox="0 0 50 50" style="enable-background:new 0 0 50 50;" xml:space="preserve">
<style type="text/css">
	.st0{fill:#4F84C4;}
	.st1{fill:#FFFFFF;}
</style>
<circle class="st0" cx="25" cy="25" r="25"/>
<g>
	<g>
		<g>
			<g>
				<g>
					<g>
						<path class="st1" d="M40.3,28.6c-0.5,1.3-1.7,2.8-3.3,4.5c-1.6,1.7-3.5,2.9-5.7,3.8c-3.8,1.7-7.5,1.9-10.9,0.4
							c-3.4-1.3-5.9-3.8-7.5-7.5c-1.3-3.2-1.5-6.4-0.3-9.6c1.2-3.2,3.6-5.6,7.2-7.2c3.7-1.7,7.2-1.8,10.3-0.4c3.1,1.3,5.6,4,7.5,8.3
							l-20.6,9c1.5,2.3,3.3,3.7,5.5,4.5c2.3,0.6,4.7,0.4,7.4-0.7c1.3-0.6,2.9-1.6,4.1-2.8c1.3-1.2,2.4-2.4,2.9-3.7L40.3,28.6z
							 M32.7,19.2c-1.3-1.9-3-3-5.1-3.5c-2.1-0.5-4.1-0.3-6.3,0.7c-2.2,0.9-3.8,2.3-4.7,4c-0.9,1.8-1.3,3.8-0.9,6.2L32.7,19.2z"/>
					</g>
				</g>
				<g>
					<g>
						<g>
							<g>
								<path class="st1" d="M25.1,38.7c-1.7,0-3.3-0.3-4.9-0.9l0,0c-3.5-1.3-6.1-3.9-7.8-7.7l0,0c-0.8-1.8-1.2-3.6-1.2-5.4l0,0
									c0-1.5,0.3-3,0.8-4.6l0,0c1.3-3.3,3.7-5.8,7.4-7.4l0,0c2.1-0.9,4-1.3,6.1-1.3l0,0c1.6,0,3,0.3,4.6,0.9l0,0
									c3.2,1.3,5.8,4.3,7.7,8.5l0,0l0.2,0.4l-20.6,9c1.3,2.1,3,3.3,5.1,3.8l0,0c0.8,0.3,1.7,0.4,2.5,0.4l0,0c1.5,0,3-0.4,4.7-1.1
									l0,0c1.3-0.6,2.8-1.5,4-2.7l0,0c1.3-1.2,2.3-2.4,2.9-3.6l0,0l0.2-0.3l3.6,1.5l-0.2,0.4l0.2-0.4l0.3,0.1l-0.2,0.4
									c-0.5,1.3-1.8,2.9-3.4,4.6l0,0c-1.7,1.7-3.6,2.9-5.8,3.9l0,0C29.2,38.2,27.3,38.7,25.1,38.7L25.1,38.7L25.1,38.7L25.1,38.7z
									 M19.9,13.4c-3.5,1.6-5.8,3.8-7,7l0,0c-0.5,1.5-0.8,2.9-0.8,4.4l0,0c0,1.7,0.4,3.4,1.1,5.1l0,0c1.6,3.5,3.9,5.9,7.3,7.3l0,0
									c1.5,0.6,3,0.9,4.6,0.9l0,0c2,0,3.9-0.4,6-1.3l0,0c2.1-0.9,3.9-2.2,5.6-3.8l0,0c1.5-1.5,2.5-2.8,3.1-3.9l0,0l-2.6-1.1
									c-0.6,1.2-1.7,2.4-2.9,3.5l0,0c-1.3,1.2-2.8,2.1-4.4,2.8l0,0c-1.8,0.7-3.4,1.1-5,1.1l0,0c-0.9,0-1.9-0.1-2.7-0.4l0,0
									c-2.3-0.7-4.3-2.2-5.8-4.6l0,0l-0.3-0.4L37,20.6c-1.9-3.9-4.3-6.5-7.2-7.8l0,0C28.4,12.3,27,12,25.5,12l0,0
									C23.8,12,21.9,12.5,19.9,13.4L19.9,13.4z M15.2,26.7c-0.1-0.7-0.1-1.3-0.1-2.1l0,0c0-1.7,0.4-3.1,1.1-4.5l0,0
									c1-1.9,2.7-3.2,4.9-4.3l0,0c1.5-0.6,2.9-1,4.5-1l0,0c0.7,0,1.5,0.1,2.2,0.3l0,0c2.1,0.5,3.8,1.8,5.3,3.7l0,0L32.8,19
									l0.3-0.2l0.3,0.4l-17.9,8L15.2,26.7L15.2,26.7z M21.4,16.7c-2.1,0.9-3.6,2.2-4.6,3.9l0,0c-0.6,1.2-1,2.6-1,4.1l0,0
									c0,0.4,0,0.9,0.1,1.3l0,0l16.3-7.2c-1.3-1.6-2.8-2.6-4.6-3l0,0c-0.6-0.2-1.3-0.3-2.1-0.3l0,0C24.2,15.8,22.8,16.1,21.4,16.7
									L21.4,16.7z"/>
							</g>
						</g>
					</g>
				</g>
			</g>
		</g>
	</g>
</g>
</svg>
