<?xml version="1.0" encoding="utf-8"?>
<!-- Generator: Adobe Illustrator 21.0.2, SVG Export Plug-In . SVG Version: 6.00 Build 0)  -->
<svg version="1.1" id="Layer_1" xmlns="http://www.w3.org/2000/svg" xmlns:xlink="http://www.w3.org/1999/xlink" x="0px" y="0px"
	 viewBox="0 0 140.9 34.1" style="enable-background:new 0 0 140.9 34.1;" xml:space="preserve">
<style type="text/css">
	.st0{fill:#3A3737;}
	.st1{fill:#4F84C4;}
	.st2{fill:#3A3737;stroke:#3A3737;stroke-width:0.75;stroke-miterlimit:10;}
</style>
<g>
	<g>
		<g>
			<g>
				<g>
					<path class="st0" d="M7.1,3.5h9.3V7H7.1v2.8h6.1c3.1,0,4.6,1.6,4.6,4.8s-1.6,4.9-4.6,4.9H3.3v-3.5h9.9v-2.7H7.1
						C4.4,13.2,3,11.6,3,8.4S4.4,3.5,7.1,3.5z"/>
				</g>
			</g>
		</g>
		<g>
			<g>
				<g>
					<path class="st0" d="M24.5,3.3h7c2.7,0,4.1,1.1,4.1,3.4v9.3c0,2.3-1.4,3.4-4.1,3.4h-7c-2.9,0-4.3-1.1-4.3-3.4V6.7
						C20.2,4.5,21.7,3.3,24.5,3.3z M24.5,6.7v9.3h7V6.7H24.5z"/>
				</g>
			</g>
		</g>
		<g>
			<g>
				<g>
					<path class="st0" d="M38.5,3.5h4.3v12.4H51v3.5H38.5V3.5z"/>
				</g>
			</g>
		</g>
		<g>
			<g>
				<g>
					<path class="st0" d="M49.2,3.5h4.4l4.2,12.4l3.9-12.4H66l-5.4,15.9h-5.9L49.2,3.5z"/>
				</g>
			</g>
		</g>
		<g>
			<g>
				<g>
					<path class="st0" d="M86.4,3.5h10.7c3.1,0,4.6,1.2,4.6,3.5v9c0,2.3-1.6,3.5-4.6,3.5H86.4V3.5z M90.6,7v9h6.5V7H90.6z"/>
				</g>
			</g>
		</g>
		<g>
			<g>
				<g>
					<path class="st0" d="M108.6,3.3h9.8v3.5h-9.6v9.1h6.5v-3.2h-3.8V9.4h7.8v6.4c0,2.3-1.4,3.5-4.2,3.5h-6.5
						c-2.8-0.1-4.2-1.3-4.2-3.5v-9C104.4,4.5,105.8,3.3,108.6,3.3z"/>
				</g>
			</g>
		</g>
		<g>
			<g>
				<g>
					<path class="st0" d="M122.3,3.5h12.8V7h-8.5v2.6h8.1v3.5h-8.1v2.8h8.5v3.5h-12.8V3.5L122.3,3.5z"/>
				</g>
			</g>
		</g>
	</g>
	<g>
		<g>
			<g>
				<g>
					<g>
						<g>
							<path class="st1" d="M85.3,13.1C85,14,84.2,15.1,83,16.2c-1.1,1.2-2.4,2.1-4,2.7c-2.6,1.2-5.3,1.3-7.6,0.3
								c-2.4-0.9-4.1-2.7-5.3-5.3c-0.9-2.3-1.1-4.5-0.2-6.7C66.8,5,68.4,3.3,71,2.2C73.6,1,76,1,78.2,1.9c2.2,0.9,3.9,2.8,5.3,5.8
								L69,14c1.1,1.6,2.3,2.6,3.9,3.1c1.6,0.4,3.3,0.3,5.2-0.5c0.9-0.4,2-1.1,2.9-1.9c0.9-0.8,1.7-1.7,2.1-2.6L85.3,13.1z M80,6.5
								c-0.9-1.3-2.1-2.1-3.6-2.4C75,3.7,73.6,3.9,72,4.6c-1.6,0.6-2.6,1.6-3.3,2.8c-0.6,1.3-0.9,2.6-0.6,4.3L80,6.5z"/>
						</g>
					</g>
					<g>
						<g>
							<g>
								<g>
									<path class="st1" d="M74.7,20.2c-1.2,0-2.3-0.2-3.4-0.6l0,0c-2.4-0.9-4.3-2.8-5.4-5.4l0,0c-0.6-1.3-0.8-2.5-0.8-3.8l0,0
										c0-1.1,0.2-2.1,0.6-3.3l0,0c0.9-2.3,2.6-4.1,5.2-5.2l0,0C72.3,1.3,73.6,1,75,1l0,0c1.1,0,2.1,0.2,3.2,0.6l0,0
										c2.3,0.9,4.1,3,5.4,5.9l0,0l0.1,0.3l-14.4,6.3c0.9,1.4,2.1,2.3,3.6,2.7l0,0c0.6,0.2,1.2,0.3,1.8,0.3l0,0
										c1.1,0,2.1-0.3,3.3-0.8l0,0c0.9-0.4,1.9-1.1,2.8-1.9l0,0c0.9-0.8,1.6-1.7,2.1-2.5l0,0l0.1-0.2l2.5,1.1l-0.1,0.3l0.1-0.3
										l0.2,0.1l-0.1,0.3c-0.4,0.9-1.3,2-2.4,3.2l0,0c-1.2,1.2-2.5,2.1-4.1,2.8l0,0C77.6,19.9,76.2,20.2,74.7,20.2L74.7,20.2
										L74.7,20.2L74.7,20.2z M71.1,2.5c-2.4,1.1-4.1,2.7-4.9,4.9l0,0c-0.4,1.1-0.6,2-0.6,3.1l0,0c0,1.2,0.3,2.4,0.8,3.6l0,0
										c1.1,2.4,2.8,4.1,5.1,5.1l0,0c1.1,0.4,2.1,0.6,3.3,0.6l0,0c1.4,0,2.8-0.3,4.2-0.9l0,0c1.5-0.6,2.8-1.6,3.9-2.6l0,0
										c1.1-1.1,1.8-1.9,2.2-2.8l0,0l-1.8-0.8c-0.4,0.8-1.2,1.7-2,2.4l0,0c-0.9,0.8-1.9,1.5-3.1,1.9l0,0c-1.3,0.5-2.4,0.8-3.5,0.8
										l0,0c-0.6,0-1.3-0.1-1.9-0.3l0,0c-1.6-0.5-3-1.6-4.1-3.3l0,0L68.6,14L83,7.5C81.7,4.8,80,3,78,2.1l0,0
										C77,1.7,76,1.5,75,1.5l0,0C73.8,1.5,72.5,1.8,71.1,2.5L71.1,2.5z M67.8,11.8c-0.1-0.5-0.1-0.9-0.1-1.4l0,0
										c0-1.2,0.3-2.2,0.8-3.1l0,0c0.7-1.3,1.9-2.3,3.4-3l0,0C73,3.8,74,3.5,75,3.5l0,0c0.5,0,1.1,0.1,1.6,0.2l0,0
										c1.5,0.4,2.7,1.3,3.7,2.6l0,0l-0.2,0.1l0.2-0.1l0.2,0.3l-12.5,5.6L67.8,11.8L67.8,11.8z M72.1,4.8
										c-1.5,0.6-2.5,1.6-3.2,2.8l0,0c-0.4,0.8-0.7,1.8-0.7,2.9l0,0c0,0.3,0,0.6,0.1,0.9l0,0l11.4-5c-0.9-1.1-1.9-1.8-3.3-2.1l0,0
										C76,4.1,75.5,4,75,4l0,0C74.1,4.2,73.1,4.3,72.1,4.8L72.1,4.8z"/>
								</g>
							</g>
						</g>
					</g>
				</g>
			</g>
		</g>
	</g>
	<g>
		<g>
			<path class="st0" d="M137.2,1.6c0.1,0,0.1,0.3,0,0.3h-0.8v1.8c0,0.1-0.1,0.1-0.1,0.1c-0.1,0-0.1-0.1-0.1-0.1V1.8h-0.7
				c-0.1,0-0.1-0.3,0-0.3H137.2L137.2,1.6z M139.4,1.7c0.1-0.1,0.3-0.1,0.3,0.1v1.9c0,0.1-0.3,0.1-0.3,0V2.2l-0.7,1.1l0,0
				c-0.1,0.1-0.2,0.1-0.3,0l-0.6-1.1v1.5c0,0.2-0.3,0.2-0.3,0V1.8c0-0.1,0.1-0.2,0.3-0.1l0.8,1.3L139.4,1.7z"/>
		</g>
	</g>
	<g>
		<path class="st2" d="M5.4,32.1c-0.9,0-1.6-0.5-1.6-1.3h0.5c0.1,0.4,0.3,0.8,1.1,0.8c0.6,0,1.1-0.4,1.1-0.8c0-1.4-2.5-0.5-2.5-2.3
			c0-0.7,0.6-1.3,1.5-1.3s1.4,0.5,1.5,1.1H6.4c-0.1-0.3-0.4-0.7-0.9-0.7c-0.5,0-0.9,0.3-0.9,0.8c0,1.4,2.5,0.5,2.5,2.2
			C6.8,31.4,6.3,32.1,5.4,32.1z"/>
		<path class="st2" d="M8.2,27.4h0.4V32H8.2V27.4z"/>
		<path class="st2" d="M10.2,27.4h0.5l1.8,3.9l1.8-3.9h0.5V32h-0.4v-3.6L12.7,32h-0.3l-1.6-3.6V32h-0.4L10.2,27.4L10.2,27.4z"/>
		<path class="st2" d="M17.7,30.1h-0.9V32h-0.4v-4.6h1.4c1.1,0,1.6,0.6,1.6,1.3C19.3,29.4,18.8,30.1,17.7,30.1z M17.7,29.7
			c0.8,0,1.1-0.4,1.1-0.9c0-0.6-0.3-0.9-1.1-0.9h-0.9v1.9L17.7,29.7L17.7,29.7z"/>
		<path class="st2" d="M21.1,27.4v4.2h1.7V32h-2.1v-4.6H21.1z"/>
		<path class="st2" d="M23.9,27.4h0.4V32h-0.4V27.4z"/>
		<path class="st2" d="M25.9,27.4h2.5v0.4h-2v1.8h1.8v0.4h-1.8V32h-0.4L25.9,27.4C25.9,27.4,25.9,27.4,25.9,27.4z"/>
		<path class="st2" d="M29.3,27.4h0.5l1.3,2.4l1.2-2.4h0.5l-1.5,2.8V32h-0.4v-1.8L29.3,27.4z"/>
		<path class="st2" d="M33.9,27.4h0.4V32h-0.4V27.4z"/>
		<path class="st2" d="M39.5,27.4V32H39l-2.5-3.9V32H36v-4.6h0.4l2.5,3.9v-3.9H39.5z"/>
		<path class="st2" d="M45.2,28.8h-0.5c-0.3-0.6-0.8-0.9-1.6-0.9c-1.1,0-1.8,0.7-1.8,1.9c0,1.3,0.8,1.9,1.8,1.9
			c0.9,0,1.7-0.6,1.8-1.7h-1.9v-0.4h2.4v0.3c-0.1,1.3-0.9,2.1-2.3,2.1s-2.3-0.9-2.3-2.3c0-1.4,0.9-2.3,2.3-2.3
			C44,27.3,44.8,27.9,45.2,28.8z"/>
		<path class="st2" d="M52,29.9h-2.5V32H49v-4.6h0.4v2H52v-2.1h0.4V32H52V29.9z"/>
		<path class="st2" d="M56.4,27.8h-1.9v1.8h1.8v0.4h-1.8v1.8h1.9V32H54v-4.6h2.4V27.8z"/>
		<path class="st2" d="M60.6,30.9h-2.1L58,32h-0.5l1.7-4.5h0.5l1.7,4.5h-0.5L60.6,30.9z M59.5,28.1l-0.9,2.4h1.8L59.5,28.1z"/>
		<path class="st2" d="M63.1,27.4v4.2h1.7V32h-2.1v-4.6H63.1z"/>
		<path class="st2" d="M65.6,27.4h3.1v0.4h-1.3V32h-0.4v-4.2h-1.3C65.6,27.8,65.6,27.4,65.6,27.4z"/>
		<path class="st2" d="M72.9,29.9h-2.5V32h-0.4v-4.6h0.4v2h2.5v-2.1h0.4V32h-0.4V29.9z"/>
		<path class="st2" d="M77,27.3c1.1,0,1.8,0.5,2.1,1.4h-0.5c-0.3-0.6-0.8-0.9-1.6-0.9c-1.1,0-1.8,0.8-1.8,1.9c0,1.3,0.8,1.9,1.8,1.9
			c0.8,0,1.3-0.4,1.6-0.9h0.5c-0.3,0.8-1.1,1.4-2.1,1.4c-1.3,0-2.3-0.9-2.3-2.3C74.7,28.4,75.7,27.3,77,27.3z"/>
		<path class="st2" d="M83.2,30.9h-2.1L80.8,32h-0.5l1.7-4.5h0.5l1.7,4.5h-0.5L83.2,30.9z M82.2,28.1l-0.9,2.5h1.8L82.2,28.1z"/>
		<path class="st2" d="M86.8,27.4c1.1,0,1.6,0.6,1.6,1.4c0,0.6-0.4,1.2-1.2,1.3l1.2,1.9h-0.6l-1.2-1.9h-0.8V32h-0.4v-4.6L86.8,27.4
			L86.8,27.4z M86.8,27.8h-0.9v1.9h0.9c0.8,0,1.1-0.4,1.1-0.9C87.9,28.2,87.6,27.8,86.8,27.8z"/>
		<path class="st2" d="M92.2,27.8h-1.9v1.8H92v0.4h-1.8v1.8h1.9V32h-2.4v-4.6h2.4V27.8z"/>
		<path class="st2" d="M98.4,27.8h-1.9v1.8h1.8v0.4h-1.8v1.8h1.9V32H96v-4.6h2.4V27.8z"/>
		<path class="st2" d="M101.1,30.1L100,32h-0.5l1.4-2.3l-1.4-2.3h0.5l1.2,1.9l1.1-1.9h0.5l-1.4,2.3l1.4,2.3h-0.5L101.1,30.1z"/>
		<path class="st2" d="M105.6,30.1h-0.9V32h-0.4v-4.6h1.4c1.1,0,1.6,0.6,1.6,1.3C107.1,29.4,106.6,30.1,105.6,30.1z M105.6,29.7
			c0.8,0,1.1-0.4,1.1-0.9c0-0.6-0.3-0.9-1.1-0.9h-0.9v1.9L105.6,29.7L105.6,29.7z"/>
		<path class="st2" d="M108.9,29.9v1.8h1.9V32h-2.4v-4.6h2.4v0.4c0,0,0.1,0,0.1,0h-1.9v1.8h1.8v0.4H108.9"/>
		<path class="st2" d="M113.6,27.4c1.1,0,1.6,0.6,1.6,1.4c0,0.6-0.4,1.2-1.2,1.3l1.2,1.9h-0.6l-1.2-1.9h-0.8V32h-0.3v-4.6
			L113.6,27.4L113.6,27.4z M113.6,27.8h-0.9v1.9h0.9c0.8,0,1.1-0.4,1.1-0.9C114.7,28.2,114.4,27.8,113.6,27.8z"/>
		<path class="st2" d="M116.6,27.4h0.4V32h-0.4V27.4z"/>
		<path class="st2" d="M121.1,27.8h-1.9v1.8h1.8v0.4h-1.8v1.8h1.9V32h-2.4v-4.6h2.4V27.8z"/>
		<path class="st2" d="M126,27.4V32h-0.4l-2.5-3.9V32h-0.4v-4.6h0.4l2.5,3.9v-3.9H126z"/>
		<path class="st2" d="M129.6,27.3c1.1,0,1.8,0.5,2.1,1.4h-0.5c-0.3-0.6-0.8-0.9-1.6-0.9c-1.1,0-1.8,0.8-1.8,1.9
			c0,1.3,0.8,1.9,1.8,1.9c0.8,0,1.3-0.4,1.6-0.9h0.5c-0.3,0.8-1.1,1.4-2.1,1.4c-1.3,0-2.3-0.9-2.3-2.3
			C127.3,28.4,128.3,27.3,129.6,27.3z"/>
		<path class="st2" d="M135.6,27.8h-1.9v1.8h1.8v0.4h-1.8v1.8h1.9V32h-2.4v-4.6h2.4V27.8z"/>
	</g>
</g>
</svg>
