<?xml version="1.0" encoding="utf-8"?>
<!-- Generator: Adobe Illustrator 21.0.2, SVG Export Plug-In . SVG Version: 6.00 Build 0)  -->
<svg version="1.1" id="Layer_1" xmlns="http://www.w3.org/2000/svg" xmlns:xlink="http://www.w3.org/1999/xlink" x="0px" y="0px"
	 viewBox="0 0 1366 768" style="enable-background:new 0 0 1366 768;" xml:space="preserve">
<style type="text/css">
	.st0{fill:#EBEDF2;}
	.st1{clip-path:url(#SVGID_2_);}
	.st2{fill:#CCCCCC;}
	.st3{opacity:0.8;}
	.st4{fill:#FFFFFF;}
	.st5{fill:#FEFEFE;}
	.st6{fill:#FDFDFD;}
	.st7{fill:#FBFBFB;}
	.st8{fill:#FAFAFA;}
	.st9{fill:#F9F9F9;}
	.st10{fill:#F8F8F8;}
	.st11{fill:#F6F6F6;}
	.st12{fill:#F5F5F5;}
	.st13{fill:#F4F4F4;}
	.st14{fill:#F3F3F3;}
	.st15{fill:#F1F1F1;}
	.st16{fill:#F0F0F0;}
	.st17{fill:#EFEFEF;}
	.st18{fill:#EEEEEE;}
	.st19{fill:#ECECEC;}
	.st20{fill:#EBEBEB;}
	.st21{fill:#EAEAEA;}
	.st22{fill:#E9E9E9;}
	.st23{fill:#E7E7E7;}
	.st24{fill:#E6E6E6;}
	.st25{fill:#E5E5E5;}
	.st26{fill:#E4E4E4;}
	.st27{fill:#E2E2E2;}
	.st28{fill:#E1E1E1;}
	.st29{fill:#E0E0E0;}
	.st30{fill:#DFDFDF;}
	.st31{fill:#DDDDDD;}
	.st32{fill:#DCDCDC;}
	.st33{fill:#DBDBDB;}
	.st34{fill:#DADADA;}
	.st35{fill:#D8D8D8;}
	.st36{fill:#D7D7D7;}
	.st37{fill:#D6D6D6;}
	.st38{fill:#D5D5D5;}
	.st39{fill:#D3D3D3;}
	.st40{fill:#D2D2D2;}
	.st41{fill:#D1D1D1;}
	.st42{fill:#D0D0D0;}
	.st43{fill:#CECECE;}
	.st44{fill:#CDCDCD;}
	.st45{fill:#0091CC;}
</style>
<g>
	
		<rect x="-9.9" y="-5.6" transform="matrix(-1 -4.489710e-11 4.489710e-11 -1 1368.373 781.9275)" class="st0" width="1388.1" height="793.2"/>
	<g>
		<defs>
			
				<rect id="SVGID_1_" x="-9.9" y="-5.6" transform="matrix(-1 -4.489710e-11 4.489710e-11 -1 1368.373 781.9275)" width="1388.1" height="793.2"/>
		</defs>
		<clipPath id="SVGID_2_">
			<use xlink:href="#SVGID_1_"  style="overflow:visible;"/>
		</clipPath>
		<g class="st1">
			<g>
				
					<rect x="1152.4" y="-235.8" transform="matrix(0.7129 -0.7012 0.7012 0.7129 157.9906 879.9893)" class="st2" width="2.8" height="965.6"/>
			</g>
			<g>
				
					<rect x="794.1" y="479.9" transform="matrix(0.5566 -0.8308 0.8308 0.5566 139.8067 1224.4481)" class="st2" width="845.8" height="2.8"/>
			</g>
			<g>
				
					<rect x="506.1" y="356.9" transform="matrix(0.164 -0.9865 0.9865 0.164 505.3704 1312.9104)" class="st2" width="1042.3" height="2.8"/>
			</g>
			<g>
				
					<rect x="885.4" y="-361.6" transform="matrix(0.6143 -0.7891 0.7891 0.6143 111.0786 812.645)" class="st2" width="2.8" height="1308.5"/>
			</g>
			<g>
				
					<rect x="471" y="483.4" transform="matrix(0.689 -0.7247 0.7247 0.689 -31.4899 896.1293)" class="st2" width="1115" height="2.8"/>
			</g>
			<g>
				
					<rect x="378.2" y="725.8" transform="matrix(0.967 -0.2547 0.2547 0.967 -154.8474 258.5015)" class="st2" width="1085.1" height="2.8"/>
			</g>
			<g>
				
					<rect x="879.6" y="-495.5" transform="matrix(0.2042 -0.9789 0.9789 0.2042 586.4786 955.5094)" class="st2" width="2.8" height="1225.1"/>
			</g>
			<circle class="st2" cx="1130.9" cy="377.1" r="18.8"/>
			<circle class="st2" cx="1051.7" cy="211.7" r="9.9"/>
			<circle class="st2" cx="849.8" cy="263.9" r="10.9"/>
			<circle class="st2" cx="1186.9" cy="526.2" r="15"/>
			<circle class="st2" cx="1001.6" cy="513.1" r="13.1"/>
			<circle class="st2" cx="1130.9" cy="223.7" r="7"/>
			<circle class="st2" cx="1073.8" cy="78.6" r="5.2"/>
			<circle class="st2" cx="1295.7" cy="203.7" r="4.7"/>
			<circle class="st2" cx="1309.6" cy="343" r="9.3"/>
			<circle class="st2" cx="1080.4" cy="685.1" r="10.1"/>
			<circle class="st2" cx="977.6" cy="657" r="7.3"/>
			<circle class="st2" cx="917.8" cy="600.2" r="16.6"/>
			<circle class="st2" cx="580.1" cy="54.2" r="7.4"/>
			<circle class="st2" cx="835.4" cy="107.5" r="13.8"/>
			<circle class="st2" cx="937" cy="26.5" r="6.4"/>
		</g>
	</g>
	<g class="st3">
		<path class="st4" d="M1219.8,659.8c0.5,0.3,1.2,0.3,1.8,0c85.8-54.3,79.9-148.3,78.1-165.4c-0.1-1.2-1.4-1.8-2.4-1.2
			c-3,1.8-9.4,4.4-21.1,4.4c-3.9,0-8.3-0.3-13.5-1c-24.5-3.4-37.3-13.7-40.9-17.1c-0.6-0.6-1.6-0.6-2.2,0
			c-3.6,3.4-16.4,13.7-40.9,17.1c-5.1,0.7-9.6,1-13.5,1c-11.7,0-18.1-2.6-21.1-4.4c-1-0.6-2.3,0-2.4,1.2
			C1139.9,511.5,1134.1,605.5,1219.8,659.8z"/>
		<path class="st5" d="M1218.8,658.8c0.5,0.3,1.2,0.3,1.8,0c85.8-54.3,79.9-148.3,78.1-165.4c-0.1-1.2-1.4-1.8-2.4-1.2
			c-3,1.8-9.4,4.4-21.1,4.4c-3.9,0-8.3-0.3-13.5-1c-24.5-3.4-37.3-13.7-40.9-17.1c-0.6-0.6-1.6-0.6-2.2,0
			c-3.6,3.4-16.4,13.7-40.9,17.1c-5.1,0.7-9.6,1-13.5,1c-11.7,0-18.1-2.6-21.1-4.4c-1-0.6-2.3,0-2.4,1.2
			C1138.9,510.5,1133,604.5,1218.8,658.8z"/>
		<path class="st6" d="M1217.8,657.8c0.5,0.3,1.2,0.3,1.8,0c85.8-54.3,79.9-148.3,78.1-165.4c-0.1-1.2-1.4-1.8-2.4-1.2
			c-3,1.8-9.4,4.4-21.1,4.4c-3.9,0-8.3-0.3-13.5-1c-24.5-3.4-37.3-13.7-40.9-17.1c-0.6-0.6-1.6-0.6-2.2,0
			c-3.6,3.4-16.4,13.7-40.9,17.1c-5.1,0.7-9.6,1-13.5,1c-11.7,0-18.1-2.6-21.1-4.4c-1-0.6-2.3,0-2.4,1.2
			C1137.9,509.5,1132,603.4,1217.8,657.8z"/>
		<path class="st7" d="M1216.7,656.7c0.5,0.3,1.2,0.3,1.8,0c85.8-54.3,79.9-148.3,78.1-165.4c-0.1-1.2-1.4-1.8-2.4-1.2
			c-3,1.8-9.4,4.4-21.1,4.4c-3.9,0-8.3-0.3-13.5-1c-24.5-3.4-37.3-13.7-40.9-17.1c-0.6-0.6-1.6-0.6-2.2,0
			c-3.6,3.4-16.4,13.7-40.9,17.1c-5.1,0.7-9.6,1-13.5,1c-11.7,0-18.1-2.6-21.1-4.4c-1-0.6-2.3,0-2.4,1.2
			C1136.8,508.4,1131,602.4,1216.7,656.7z"/>
		<path class="st8" d="M1215.7,655.7c0.5,0.3,1.2,0.3,1.8,0c85.8-54.3,79.9-148.3,78.1-165.4c-0.1-1.2-1.4-1.8-2.4-1.2
			c-3,1.8-9.4,4.4-21.1,4.4c-3.9,0-8.3-0.3-13.5-1c-24.5-3.4-37.3-13.7-40.9-17.1c-0.6-0.6-1.6-0.6-2.2,0
			c-3.6,3.4-16.4,13.7-40.9,17.1c-5.1,0.7-9.6,1-13.5,1c-11.7,0-18.1-2.6-21.1-4.4c-1-0.6-2.3,0-2.4,1.2
			C1135.8,507.4,1129.9,601.4,1215.7,655.7z"/>
		<path class="st9" d="M1214.7,654.7c0.5,0.3,1.2,0.3,1.8,0c85.8-54.3,79.9-148.3,78.1-165.4c-0.1-1.2-1.4-1.8-2.4-1.2
			c-3,1.8-9.4,4.4-21.1,4.4c-3.9,0-8.3-0.3-13.5-1c-24.5-3.4-37.3-13.7-40.9-17.1c-0.6-0.6-1.6-0.6-2.2,0
			c-3.6,3.4-16.4,13.7-40.9,17.1c-5.1,0.7-9.6,1-13.5,1c-11.7,0-18.1-2.6-21.1-4.4c-1-0.6-2.3,0-2.4,1.2
			C1134.8,506.4,1128.9,600.3,1214.7,654.7z"/>
		<path class="st10" d="M1213.6,653.6c0.5,0.3,1.2,0.3,1.8,0c85.8-54.3,79.9-148.3,78.1-165.4c-0.1-1.2-1.4-1.8-2.4-1.2
			c-3,1.8-9.4,4.4-21.1,4.4c-3.9,0-8.3-0.3-13.5-1c-24.5-3.4-37.3-13.7-40.9-17.1c-0.6-0.6-1.6-0.6-2.2,0
			c-3.6,3.4-16.4,13.7-40.9,17.1c-5.1,0.7-9.6,1-13.5,1c-11.7,0-18.1-2.6-21.1-4.4c-1-0.6-2.3,0-2.4,1.2
			C1133.7,505.3,1127.9,599.3,1213.6,653.6z"/>
		<path class="st11" d="M1212.6,652.6c0.5,0.3,1.2,0.3,1.8,0c85.8-54.3,79.9-148.3,78.1-165.4c-0.1-1.2-1.4-1.8-2.4-1.2
			c-3,1.8-9.4,4.4-21.1,4.4c-3.9,0-8.3-0.3-13.5-1c-24.5-3.4-37.3-13.7-40.9-17.1c-0.6-0.6-1.6-0.6-2.2,0
			c-3.6,3.4-16.4,13.7-40.9,17.1c-5.1,0.7-9.6,1-13.5,1c-11.7,0-18.1-2.6-21.1-4.4c-1-0.6-2.3,0-2.4,1.2
			C1132.7,504.3,1126.8,598.3,1212.6,652.6z"/>
		<path class="st12" d="M1211.6,651.6c0.5,0.3,1.2,0.3,1.8,0c85.8-54.3,79.9-148.3,78.1-165.4c-0.1-1.2-1.4-1.8-2.4-1.2
			c-3,1.8-9.4,4.4-21.1,4.4c-3.9,0-8.3-0.3-13.5-1c-24.5-3.4-37.3-13.7-40.9-17.1c-0.6-0.6-1.6-0.6-2.2,0
			c-3.6,3.4-16.4,13.7-40.9,17.1c-5.1,0.7-9.6,1-13.5,1c-11.7,0-18.1-2.6-21.1-4.4c-1-0.6-2.3,0-2.4,1.2
			C1131.7,503.3,1125.8,597.2,1211.6,651.6z"/>
		<path class="st13" d="M1210.5,650.5c0.5,0.3,1.2,0.3,1.8,0c85.8-54.3,79.9-148.3,78.1-165.4c-0.1-1.2-1.4-1.8-2.4-1.2
			c-3,1.8-9.4,4.4-21.1,4.4c-3.9,0-8.3-0.3-13.5-1c-24.5-3.4-37.3-13.7-40.9-17.1c-0.6-0.6-1.6-0.6-2.2,0
			c-3.6,3.4-16.4,13.7-40.9,17.1c-5.1,0.7-9.6,1-13.5,1c-11.7,0-18.1-2.6-21.1-4.4c-1-0.6-2.3,0-2.4,1.2
			C1130.6,502.2,1124.8,596.2,1210.5,650.5z"/>
		<path class="st14" d="M1209.5,649.5c0.5,0.3,1.2,0.3,1.8,0c85.8-54.3,79.9-148.3,78.1-165.4c-0.1-1.2-1.4-1.8-2.4-1.2
			c-3,1.8-9.4,4.4-21.1,4.4c-3.9,0-8.3-0.3-13.5-1c-24.5-3.4-37.3-13.7-40.9-17.1c-0.6-0.6-1.6-0.6-2.2,0
			c-3.6,3.4-16.4,13.7-40.9,17.1c-5.1,0.7-9.6,1-13.5,1c-11.7,0-18.1-2.6-21.1-4.4c-1-0.6-2.3,0-2.4,1.2
			C1129.6,501.2,1123.7,595.2,1209.5,649.5z"/>
		<path class="st15" d="M1208.5,648.5c0.5,0.3,1.2,0.3,1.8,0c85.8-54.3,79.9-148.3,78.1-165.4c-0.1-1.2-1.4-1.8-2.4-1.2
			c-3,1.8-9.4,4.4-21.1,4.4c-3.9,0-8.3-0.3-13.5-1c-24.5-3.4-37.3-13.7-40.9-17.1c-0.6-0.6-1.6-0.6-2.2,0
			c-3.6,3.4-16.4,13.7-40.9,17.1c-5.1,0.7-9.6,1-13.5,1c-11.7,0-18.1-2.6-21.1-4.4c-1-0.6-2.3,0-2.4,1.2
			C1128.6,500.2,1122.7,594.1,1208.5,648.5z"/>
		<path class="st16" d="M1207.4,647.4c0.5,0.3,1.2,0.3,1.8,0c85.8-54.3,79.9-148.3,78.1-165.4c-0.1-1.2-1.4-1.8-2.4-1.2
			c-3,1.8-9.4,4.4-21.1,4.4c-3.9,0-8.3-0.3-13.5-1c-24.5-3.4-37.3-13.7-40.9-17.1c-0.6-0.6-1.6-0.6-2.2,0
			c-3.6,3.4-16.4,13.7-40.9,17.1c-5.1,0.7-9.6,1-13.5,1c-11.7,0-18.1-2.6-21.1-4.4c-1-0.6-2.3,0-2.4,1.2
			C1127.5,499.1,1121.7,593.1,1207.4,647.4z"/>
		<path class="st17" d="M1206.4,646.4c0.5,0.3,1.2,0.3,1.8,0c85.8-54.3,79.9-148.3,78.1-165.4c-0.1-1.2-1.4-1.8-2.4-1.2
			c-3,1.8-9.4,4.4-21.1,4.4c-3.9,0-8.3-0.3-13.5-1c-24.5-3.4-37.3-13.7-40.9-17.1c-0.6-0.6-1.6-0.6-2.2,0
			c-3.6,3.4-16.4,13.7-40.9,17.1c-5.1,0.7-9.6,1-13.5,1c-11.7,0-18.1-2.6-21.1-4.4c-1-0.6-2.3,0-2.4,1.2
			C1126.5,498.1,1120.6,592.1,1206.4,646.4z"/>
		<path class="st18" d="M1205.4,645.4c0.5,0.3,1.2,0.3,1.8,0C1292.9,591,1287,497,1285.2,480c-0.1-1.2-1.4-1.8-2.4-1.2
			c-3,1.8-9.4,4.4-21.1,4.4c-3.9,0-8.3-0.3-13.5-1c-24.5-3.4-37.3-13.7-40.9-17.1c-0.6-0.6-1.6-0.6-2.2,0
			c-3.6,3.4-16.4,13.7-40.9,17.1c-5.1,0.7-9.6,1-13.5,1c-11.7,0-18.1-2.6-21.1-4.4c-1-0.6-2.3,0-2.4,1.2
			C1125.5,497.1,1119.6,591,1205.4,645.4z"/>
		<path class="st19" d="M1204.3,644.3c0.5,0.3,1.2,0.3,1.8,0c85.8-54.3,79.9-148.3,78.1-165.4c-0.1-1.2-1.4-1.8-2.4-1.2
			c-3,1.8-9.4,4.4-21.1,4.4c-3.9,0-8.3-0.3-13.5-1c-24.5-3.4-37.3-13.7-40.9-17.1c-0.6-0.6-1.6-0.6-2.2,0
			c-3.6,3.4-16.4,13.7-40.9,17.1c-5.1,0.7-9.6,1-13.5,1c-11.7,0-18.1-2.6-21.1-4.4c-1-0.6-2.3,0-2.4,1.2
			C1124.4,496,1118.6,590,1204.3,644.3z"/>
		<path class="st20" d="M1203.3,643.3c0.5,0.3,1.2,0.3,1.8,0c85.8-54.3,79.9-148.3,78.1-165.4c-0.1-1.2-1.4-1.8-2.4-1.2
			c-3,1.8-9.4,4.4-21.1,4.4c-3.9,0-8.3-0.3-13.5-1c-24.5-3.4-37.3-13.7-40.9-17.1c-0.6-0.6-1.6-0.6-2.2,0
			c-3.6,3.4-16.4,13.7-40.9,17.1c-5.1,0.7-9.6,1-13.5,1c-11.7,0-18.1-2.6-21.1-4.4c-1-0.6-2.3,0-2.4,1.2
			C1123.4,495,1117.5,589,1203.3,643.3z"/>
		<path class="st21" d="M1202.3,642.3c0.5,0.3,1.2,0.3,1.8,0c85.8-54.3,79.9-148.3,78.1-165.4c-0.1-1.2-1.4-1.8-2.4-1.2
			c-3,1.8-9.4,4.4-21.1,4.4c-3.9,0-8.3-0.3-13.5-1c-24.5-3.4-37.3-13.7-40.9-17.1c-0.6-0.6-1.6-0.6-2.2,0
			c-3.6,3.4-16.4,13.7-40.9,17.1c-5.1,0.7-9.6,1-13.5,1c-11.7,0-18.1-2.6-21.1-4.4c-1-0.6-2.3,0-2.4,1.2
			C1122.4,493.9,1116.5,587.9,1202.3,642.3z"/>
		<path class="st22" d="M1201.2,641.2c0.5,0.3,1.2,0.3,1.8,0c85.8-54.3,79.9-148.3,78.1-165.4c-0.1-1.2-1.4-1.8-2.4-1.2
			c-3,1.8-9.4,4.4-21.1,4.4c-3.9,0-8.3-0.3-13.5-1c-24.5-3.4-37.3-13.7-40.9-17.1c-0.6-0.6-1.6-0.6-2.2,0
			c-3.6,3.4-16.4,13.7-40.9,17.1c-5.1,0.7-9.6,1-13.5,1c-11.7,0-18.1-2.6-21.1-4.4c-1-0.6-2.3,0-2.4,1.2
			C1121.3,492.9,1115.5,586.9,1201.2,641.2z"/>
		<path class="st23" d="M1200.2,640.2c0.5,0.3,1.2,0.3,1.8,0c85.8-54.3,79.9-148.3,78.1-165.4c-0.1-1.2-1.4-1.8-2.4-1.2
			c-3,1.8-9.4,4.4-21.1,4.4c-3.9,0-8.3-0.3-13.5-1c-24.5-3.4-37.3-13.7-40.9-17.1c-0.6-0.6-1.6-0.6-2.2,0
			c-3.6,3.4-16.4,13.7-40.9,17.1c-5.1,0.7-9.6,1-13.5,1c-11.7,0-18.1-2.6-21.1-4.4c-1-0.6-2.3,0-2.4,1.2
			C1120.3,491.9,1114.4,585.9,1200.2,640.2z"/>
		<path class="st24" d="M1199.2,639.2c0.5,0.3,1.2,0.3,1.8,0c85.8-54.3,79.9-148.3,78.1-165.4c-0.1-1.2-1.4-1.8-2.4-1.2
			c-3,1.8-9.4,4.4-21.1,4.4c-3.9,0-8.3-0.3-13.5-1c-24.5-3.4-37.3-13.7-40.9-17.1c-0.6-0.6-1.6-0.6-2.2,0
			c-3.6,3.4-16.4,13.7-40.9,17.1c-5.1,0.7-9.6,1-13.5,1c-11.7,0-18.1-2.6-21.1-4.4c-1-0.6-2.3,0-2.4,1.2
			C1119.3,490.8,1113.4,584.8,1199.2,639.2z"/>
		<path class="st25" d="M1198.1,638.1c0.5,0.3,1.2,0.3,1.8,0c85.8-54.3,79.9-148.3,78.1-165.4c-0.1-1.2-1.4-1.8-2.4-1.2
			c-3,1.8-9.4,4.4-21.1,4.4c-3.9,0-8.3-0.3-13.5-1c-24.5-3.4-37.3-13.7-40.9-17.1c-0.6-0.6-1.6-0.6-2.2,0
			c-3.6,3.4-16.4,13.7-40.9,17.1c-5.1,0.7-9.6,1-13.5,1c-11.7,0-18.1-2.6-21.1-4.4c-1-0.6-2.3,0-2.4,1.2
			C1118.2,489.8,1112.4,583.8,1198.1,638.1z"/>
		<path class="st26" d="M1197.1,637.1c0.5,0.3,1.2,0.3,1.8,0c85.8-54.3,79.9-148.3,78.1-165.4c-0.1-1.2-1.4-1.8-2.4-1.2
			c-3,1.8-9.4,4.4-21.1,4.4c-3.9,0-8.3-0.3-13.5-1c-24.5-3.4-37.3-13.7-40.9-17.1c-0.6-0.6-1.6-0.6-2.2,0
			c-3.6,3.4-16.4,13.7-40.9,17.1c-5.1,0.7-9.6,1-13.5,1c-11.7,0-18.1-2.6-21.1-4.4c-1-0.6-2.3,0-2.4,1.2
			C1117.2,488.8,1111.3,582.8,1197.1,637.1z"/>
		<path class="st27" d="M1196.1,636.1c0.5,0.3,1.2,0.3,1.8,0c85.8-54.3,79.9-148.3,78.1-165.4c-0.1-1.2-1.4-1.8-2.4-1.2
			c-3,1.8-9.4,4.4-21.1,4.4c-3.9,0-8.3-0.3-13.5-1c-24.5-3.4-37.3-13.7-40.9-17.1c-0.6-0.6-1.6-0.6-2.2,0
			c-3.6,3.4-16.4,13.7-40.9,17.1c-5.1,0.7-9.6,1-13.5,1c-11.7,0-18.1-2.6-21.1-4.4c-1-0.6-2.3,0-2.4,1.2
			C1116.2,487.7,1110.3,581.7,1196.1,636.1z"/>
		<path class="st28" d="M1195,635c0.5,0.3,1.2,0.3,1.8,0c85.8-54.3,79.9-148.3,78.1-165.4c-0.1-1.2-1.4-1.8-2.4-1.2
			c-3,1.8-9.4,4.4-21.1,4.4c-3.9,0-8.3-0.3-13.5-1c-24.5-3.4-37.3-13.7-40.9-17.1c-0.6-0.6-1.6-0.6-2.2,0
			c-3.6,3.4-16.4,13.7-40.9,17.1c-5.1,0.7-9.6,1-13.5,1c-11.7,0-18.1-2.6-21.1-4.4c-1-0.6-2.3,0-2.4,1.2
			C1115.1,486.7,1109.3,580.7,1195,635z"/>
		<path class="st29" d="M1194,634c0.5,0.3,1.2,0.3,1.8,0c85.8-54.3,79.9-148.3,78.1-165.4c-0.1-1.2-1.4-1.8-2.4-1.2
			c-3,1.8-9.4,4.4-21.1,4.4c-3.9,0-8.3-0.3-13.5-1c-24.5-3.4-37.3-13.7-40.9-17.1c-0.6-0.6-1.6-0.6-2.2,0
			c-3.6,3.4-16.4,13.7-40.9,17.1c-5.1,0.7-9.6,1-13.5,1c-11.7,0-18.1-2.6-21.1-4.4c-1-0.6-2.3,0-2.4,1.2
			C1114.1,485.7,1108.2,579.7,1194,634z"/>
		<path class="st30" d="M1193,633c0.5,0.3,1.2,0.3,1.8,0c85.8-54.3,79.9-148.3,78.1-165.4c-0.1-1.2-1.4-1.8-2.4-1.2
			c-3,1.8-9.4,4.4-21.1,4.4c-3.9,0-8.3-0.3-13.5-1c-24.5-3.4-37.3-13.7-40.9-17.1c-0.6-0.6-1.6-0.6-2.2,0
			c-3.6,3.4-16.4,13.7-40.9,17.1c-5.1,0.7-9.6,1-13.5,1c-11.7,0-18.1-2.6-21.1-4.4c-1-0.6-2.3,0-2.4,1.2
			C1113.1,484.6,1107.2,578.6,1193,633z"/>
		<path class="st31" d="M1191.9,631.9c0.5,0.3,1.2,0.3,1.8,0c85.8-54.3,79.9-148.3,78.1-165.4c-0.1-1.2-1.4-1.8-2.4-1.2
			c-3,1.8-9.4,4.4-21.1,4.4c-3.9,0-8.3-0.3-13.5-1c-24.5-3.4-37.3-13.7-40.9-17.1c-0.6-0.6-1.6-0.6-2.2,0
			c-3.6,3.4-16.4,13.7-40.9,17.1c-5.1,0.7-9.6,1-13.5,1c-11.7,0-18.1-2.6-21.1-4.4c-1-0.6-2.3,0-2.4,1.2
			C1112,483.6,1106.2,577.6,1191.9,631.9z"/>
		<path class="st32" d="M1190.9,630.9c0.5,0.3,1.2,0.3,1.8,0c85.8-54.3,79.9-148.3,78.1-165.4c-0.1-1.2-1.4-1.8-2.4-1.2
			c-3,1.8-9.4,4.4-21.1,4.4c-3.9,0-8.3-0.3-13.5-1c-24.5-3.4-37.3-13.7-40.9-17.1c-0.6-0.6-1.6-0.6-2.2,0
			c-3.6,3.4-16.4,13.7-40.9,17.1c-5.1,0.7-9.6,1-13.5,1c-11.7,0-18.1-2.6-21.1-4.4c-1-0.6-2.3,0-2.4,1.2
			C1111,482.6,1105.1,576.6,1190.9,630.9z"/>
		<path class="st33" d="M1189.9,629.9c0.5,0.3,1.2,0.3,1.8,0c85.8-54.3,79.9-148.3,78.1-165.4c-0.1-1.2-1.4-1.8-2.4-1.2
			c-3,1.8-9.4,4.4-21.1,4.4c-3.9,0-8.3-0.3-13.5-1c-24.5-3.4-37.3-13.7-40.9-17.1c-0.6-0.6-1.6-0.6-2.2,0
			c-3.6,3.4-16.4,13.7-40.9,17.1c-5.1,0.7-9.6,1-13.5,1c-11.7,0-18.1-2.6-21.1-4.4c-1-0.6-2.3,0-2.4,1.2
			C1110,481.5,1104.1,575.5,1189.9,629.9z"/>
		<path class="st34" d="M1188.8,628.8c0.5,0.3,1.2,0.3,1.8,0c85.8-54.3,79.9-148.3,78.1-165.4c-0.1-1.2-1.4-1.8-2.4-1.2
			c-3,1.8-9.4,4.4-21.1,4.4c-3.9,0-8.3-0.3-13.5-1c-24.5-3.4-37.3-13.7-40.9-17.1c-0.6-0.6-1.6-0.6-2.2,0
			c-3.6,3.4-16.4,13.7-40.9,17.1c-5.1,0.7-9.6,1-13.5,1c-11.7,0-18.1-2.6-21.1-4.4c-1-0.6-2.3,0-2.4,1.2
			C1108.9,480.5,1103.1,574.5,1188.8,628.8z"/>
		<path class="st35" d="M1187.8,627.8c0.5,0.3,1.2,0.3,1.8,0c85.8-54.3,79.9-148.3,78.1-165.4c-0.1-1.2-1.4-1.8-2.4-1.2
			c-3,1.8-9.4,4.4-21.1,4.4c-3.9,0-8.3-0.3-13.5-1c-24.5-3.4-37.3-13.7-40.9-17.1c-0.6-0.6-1.6-0.6-2.2,0
			c-3.6,3.4-16.4,13.7-40.9,17.1c-5.1,0.7-9.6,1-13.5,1c-11.7,0-18.1-2.6-21.1-4.4c-1-0.6-2.3,0-2.4,1.2
			C1107.9,479.5,1102,573.5,1187.8,627.8z"/>
		<path class="st36" d="M1186.8,626.8c0.5,0.3,1.2,0.3,1.8,0c85.8-54.3,79.9-148.3,78.1-165.4c-0.1-1.2-1.4-1.8-2.4-1.2
			c-3,1.8-9.4,4.4-21.1,4.4c-3.9,0-8.3-0.3-13.5-1c-24.5-3.4-37.3-13.7-40.9-17.1c-0.6-0.6-1.6-0.6-2.2,0
			c-3.6,3.4-16.4,13.7-40.9,17.1c-5.1,0.7-9.6,1-13.5,1c-11.7,0-18.1-2.6-21.1-4.4c-1-0.6-2.3,0-2.4,1.2
			C1106.9,478.4,1101,572.4,1186.8,626.8z"/>
		<path class="st37" d="M1185.7,625.7c0.5,0.3,1.2,0.3,1.8,0c85.8-54.3,79.9-148.3,78.1-165.4c-0.1-1.2-1.4-1.8-2.4-1.2
			c-3,1.8-9.4,4.4-21.1,4.4c-3.9,0-8.3-0.3-13.5-1c-24.5-3.4-37.3-13.7-40.9-17.1c-0.6-0.6-1.6-0.6-2.2,0
			c-3.6,3.4-16.4,13.7-40.9,17.1c-5.1,0.7-9.6,1-13.5,1c-11.7,0-18.1-2.6-21.1-4.4c-1-0.6-2.3,0-2.4,1.2
			C1105.8,477.4,1100,571.4,1185.7,625.7z"/>
		<path class="st38" d="M1184.7,624.7c0.5,0.3,1.2,0.3,1.8,0c85.8-54.3,79.9-148.3,78.1-165.4c-0.1-1.2-1.4-1.8-2.4-1.2
			c-3,1.8-9.4,4.4-21.1,4.4c-3.9,0-8.3-0.3-13.5-1c-24.5-3.4-37.3-13.7-40.9-17.1c-0.6-0.6-1.6-0.6-2.2,0
			c-3.6,3.4-16.4,13.7-40.9,17.1c-5.1,0.7-9.6,1-13.5,1c-11.7,0-18.1-2.6-21.1-4.4c-1-0.6-2.3,0-2.4,1.2
			C1104.8,476.4,1098.9,570.4,1184.7,624.7z"/>
		<path class="st39" d="M1183.7,623.7c0.5,0.3,1.2,0.3,1.8,0c85.8-54.3,79.9-148.3,78.1-165.4c-0.1-1.2-1.4-1.8-2.4-1.2
			c-3,1.8-9.4,4.4-21.1,4.4c-3.9,0-8.3-0.3-13.5-1c-24.5-3.4-37.3-13.7-40.9-17.1c-0.6-0.6-1.6-0.6-2.2,0
			c-3.6,3.4-16.4,13.7-40.9,17.1c-5.1,0.7-9.6,1-13.5,1c-11.7,0-18.1-2.6-21.1-4.4c-1-0.6-2.3,0-2.4,1.2
			C1103.8,475.3,1097.9,569.3,1183.7,623.7z"/>
		<path class="st40" d="M1182.6,622.6c0.5,0.3,1.2,0.3,1.8,0c85.8-54.3,79.9-148.3,78.1-165.4c-0.1-1.2-1.4-1.8-2.4-1.2
			c-3,1.8-9.4,4.4-21.1,4.4c-3.9,0-8.3-0.3-13.5-1c-24.5-3.4-37.3-13.7-40.9-17.1c-0.6-0.6-1.6-0.6-2.2,0
			c-3.6,3.4-16.4,13.7-40.9,17.1c-5.1,0.7-9.6,1-13.5,1c-11.7,0-18.1-2.6-21.1-4.4c-1-0.6-2.3,0-2.4,1.2
			C1102.7,474.3,1096.9,568.3,1182.6,622.6z"/>
		<path class="st41" d="M1181.6,621.6c0.5,0.3,1.2,0.3,1.8,0c85.8-54.3,79.9-148.3,78.1-165.4c-0.1-1.2-1.4-1.8-2.4-1.2
			c-3,1.8-9.4,4.4-21.1,4.4c-3.9,0-8.3-0.3-13.5-1c-24.5-3.4-37.3-13.7-40.9-17.1c-0.6-0.6-1.6-0.6-2.2,0
			c-3.6,3.4-16.4,13.7-40.9,17.1c-5.1,0.7-9.6,1-13.5,1c-11.7,0-18.1-2.6-21.1-4.4c-1-0.6-2.3,0-2.4,1.2
			C1101.7,473.3,1095.8,567.3,1181.6,621.6z"/>
		<path class="st42" d="M1180.6,620.6c0.5,0.3,1.2,0.3,1.8,0c85.8-54.3,79.9-148.3,78.1-165.4c-0.1-1.2-1.4-1.8-2.4-1.2
			c-3,1.8-9.4,4.4-21.1,4.4c-3.9,0-8.3-0.3-13.5-1c-24.5-3.4-37.3-13.7-40.9-17.1c-0.6-0.6-1.6-0.6-2.2,0
			c-3.6,3.4-16.4,13.7-40.9,17.1c-5.1,0.7-9.6,1-13.5,1c-11.7,0-18.1-2.6-21.1-4.4c-1-0.6-2.3,0-2.4,1.2
			C1100.7,472.2,1094.8,566.2,1180.6,620.6z"/>
		<path class="st43" d="M1179.5,619.5c0.5,0.3,1.2,0.3,1.8,0c85.8-54.3,79.9-148.3,78.1-165.4c-0.1-1.2-1.4-1.8-2.4-1.2
			c-3,1.8-9.4,4.4-21.1,4.4c-3.9,0-8.3-0.3-13.5-1c-24.5-3.4-37.3-13.7-40.9-17.1c-0.6-0.6-1.6-0.6-2.2,0
			c-3.6,3.4-16.4,13.7-40.9,17.1c-5.1,0.7-9.6,1-13.5,1c-11.7,0-18.1-2.6-21.1-4.4c-1-0.6-2.3,0-2.4,1.2
			C1099.6,471.2,1093.8,565.2,1179.5,619.5z"/>
		<path class="st44" d="M1178.5,618.5c0.5,0.3,1.2,0.3,1.8,0c85.8-54.3,79.9-148.3,78.1-165.4c-0.1-1.2-1.4-1.8-2.4-1.2
			c-3,1.8-9.4,4.4-21.1,4.4c-3.9,0-8.3-0.3-13.5-1c-24.5-3.4-37.3-13.7-40.9-17.1c-0.6-0.6-1.6-0.6-2.2,0
			c-3.6,3.4-16.4,13.7-40.9,17.1c-5.1,0.7-9.6,1-13.5,1c-11.7,0-18.1-2.6-21.1-4.4c-1-0.6-2.3,0-2.4,1.2
			C1098.6,470.2,1092.7,564.2,1178.5,618.5z"/>
		<path class="st2" d="M1177.5,617.5c0.5,0.3,1.2,0.3,1.8,0c85.8-54.3,79.9-148.3,78.1-165.4c-0.1-1.2-1.4-1.8-2.4-1.2
			c-3,1.8-9.4,4.4-21.1,4.4c-3.9,0-8.3-0.3-13.5-1c-24.5-3.4-37.3-13.7-40.9-17.1c-0.6-0.6-1.6-0.6-2.2,0
			c-3.6,3.4-16.4,13.7-40.9,17.1c-5.1,0.7-9.6,1-13.5,1c-11.7,0-18.1-2.6-21.1-4.4c-1-0.6-2.3,0-2.4,1.2
			C1097.6,469.1,1091.7,563.1,1177.5,617.5z"/>
	</g>
	<path class="st45" d="M1178.5,618.2c95.6-59.8,78.6-168.7,78.6-168.7s-5.7,5.9-23.2,5.9c-3.9,0-8.3-0.3-13.5-1
		c-29.4-4.1-42-18.1-42-18.1s-12.5,14-41.9,18.1c-5.1,0.7-9.6,1-13.5,1c-17.5,0-23.2-5.9-23.2-5.9S1082.9,558.4,1178.5,618.2z"/>
	<polygon class="st4" points="1132.4,507.1 1166.6,507.1 1166.6,472.9 1192.9,472.9 1192.9,507.1 1227,507.1 1227,533.3 
		1192.9,533.3 1192.9,567.5 1166.6,567.5 1166.6,533.3 1132.4,533.3 	"/>
</g>
</svg>
